<?xml version="1.0" encoding="iso-8859-1"?>
<!-- Generator: Adobe Illustrator 16.0.0, SVG Export Plug-In . SVG Version: 6.00 Build 0)  -->
<!DOCTYPE svg PUBLIC "-//W3C//DTD SVG 1.1//EN" "http://www.w3.org/Graphics/SVG/1.1/DTD/svg11.dtd">
<svg xmlns="http://www.w3.org/2000/svg" xmlns:xlink="http://www.w3.org/1999/xlink" version="1.1" id="Capa_1" x="0px" y="0px" width="512px" height="512px" viewBox="0 0 318.745 318.745" style="enable-background:new 0 0 318.745 318.745;" xml:space="preserve">
<g>
	<g>
		<path d="M160.507,70.006c-6.49,6.097-18.962,5.217-28.226,4.932l2.159,21.155c15.876,7.881,32.984,6.004,49.694,1.698    l2.382-23.325C179.574,68.649,166.287,77.924,160.507,70.006z" fill="#FFFFFF"/>
		<path d="M203.616,24.47c-2.719-4.347,0-11.141,0-17.121c0-5.981-4.619-3.263-5.163-5.435c-0.549-2.175-7.068-1.903-7.068-1.903    c-0.549,3.532-16.85,22.015-22.824,27.719c-5.981,5.706-5.707,11.418-5.707,11.418s-3.342,4.935-3.475,13.419    c-0.135-8.484-3.475-13.419-3.475-13.419s0.272-5.707-5.703-11.418c-5.983-5.704-22.287-24.187-22.828-27.719    c0,0-6.521-0.271-7.068,1.903c-0.541,2.172-5.166-0.541-5.166,5.435c0,5.98,2.722,12.774,0,17.121    c-2.718,4.347,3.263,10.054,2.722,16.034c-0.51,5.621,6.907,28.055,12.989,31.167c9.105,0.308,23.586,1.846,28.544-5.217    c0.859-1.225,2.439-0.945,2.982,0.388c2.543,6.289,14.634,2.421,19.698,2.657c2.355,0.106,4.282,0.88,5.949,2.115    c6.063-3.314,13.391-25.521,12.884-31.11C200.359,34.523,206.333,28.817,203.616,24.47z" fill="#FFFFFF"/>
		<path d="M280.8,251.403c0.27-1.356,6.789-0.817,6.789-4.618s4.08-6.25,3.531-8.156c-0.539-1.905-11.139-21.469-16.301-26.631    c-5.168-5.168-23.104-29.354-26.637-38.054c-3.531-8.694-19.024-27.449-33.704-47.287c-10.926-14.773-22.442-23.056-27.62-26.325    c-0.166,0.137-0.373,0.249-0.627,0.318c-17.688,4.681-35.809,6.68-52.63-1.364c-3.77,2.195-16.925,10.594-29.337,27.376    c-14.677,19.842-30.165,38.592-33.702,47.287c-3.531,8.699-21.471,32.887-26.633,38.054c-5.166,5.163-15.765,24.726-16.306,26.632    c-0.546,1.905,3.532,4.35,3.532,8.155s6.521,3.262,6.791,4.619c0.271,1.356-0.815,6.519,4.619,7.067l-3.801,8.415    c0,0-0.541,4.075,2.172,3.531c2.721-0.549-4.616,6.52,5.983,5.163c10.6-1.357,5.704,5.98,11.143,6.793l-4.347,7.338    c0,0,3.263,4.35,6.794,2.992c0,0-2.721,5.707-1.087,8.156s3.806-1.631,5.704-3.531c1.906-1.906,0,4.618,6.522,2.718l2.175-3.262    c0,0,4.347,7.229,9.243,4.836l-0.271,4.407c0,0,4.619,0.269,5.706,0l-0.541,4.893l5.165-1.356c0,0-1.087,4.619,2.719,4.894    c0,0-2.172,2.724-1.085,2.724c1.085,0,10.869,2.719,16.303-1.362l-0.541-2.987l3.809,0.27l0.815,2.718    c0,0,1.903-0.812,5.435-2.443c3.532-1.632,1.628,4.696,1.628,4.696s3.809-2.103,6.522,0c2.721,2.097,7.34-1.559,11.417,0    c0,0,5.704-0.347,6.25-1.704v-3.531c0,0,2.991,3.263,5.707,1.088v-2.719c0,0,1.955,0.228,4.173,0.45    c0.016,0.213,0.036,0.357,0.057,0.362c0.355,0.094,1.569,0.031,3.051-0.082c1.48,0.113,2.697,0.171,3.05,0.082    c0.021-0.005,0.041-0.149,0.057-0.362c2.216-0.223,4.174-0.45,4.174-0.45v2.719c2.718,2.175,5.706-1.088,5.706-1.088v3.531    c0.539,1.357,6.25,1.704,6.25,1.704c4.08-1.559,8.699,2.097,11.418,0c2.719-2.103,6.52,0,6.52,0s-1.9-6.328,1.636-4.696    c3.537,1.636,5.432,2.443,5.432,2.443l0.818-2.718l3.806-0.27l-0.543,2.987c5.432,4.081,15.218,1.362,16.306,1.362    c1.087,0-1.088-2.724-1.088-2.724c3.807-0.27,2.719-4.894,2.719-4.894l5.163,1.356l-0.539-4.893c1.088,0.269,5.706,0,5.706,0    l-0.269-4.407c4.893,2.393,9.237-4.836,9.237-4.836l2.175,3.262c6.524,1.906,4.619-4.618,6.524-2.718    c1.9,1.9,4.075,5.98,5.706,3.531c1.626-2.449-1.087-8.156-1.087-8.156c3.531,1.357,6.788-2.992,6.788-2.992l-4.344-7.338    c5.432-0.818,0.543-8.155,11.143-6.793c10.6,1.356,3.263-5.701,5.981-5.163c2.724,0.544,2.175-3.531,2.175-3.531l-3.807-8.425    C281.614,257.923,280.526,252.76,280.8,251.403z" fill="#FFFFFF"/>
	</g>
</g>
<g>
</g>
<g>
</g>
<g>
</g>
<g>
</g>
<g>
</g>
<g>
</g>
<g>
</g>
<g>
</g>
<g>
</g>
<g>
</g>
<g>
</g>
<g>
</g>
<g>
</g>
<g>
</g>
<g>
</g>
</svg>
