<?xml version="1.0" encoding="iso-8859-1"?>
<!-- Generator: Adobe Illustrator 19.1.0, SVG Export Plug-In . SVG Version: 6.00 Build 0)  -->
<svg version="1.1" id="Capa_1" xmlns="http://www.w3.org/2000/svg" xmlns:xlink="http://www.w3.org/1999/xlink" x="0px" y="0px"
	 viewBox="0 0 430 430" style="enable-background:new 0 0 430 430;" xml:space="preserve">
<g>
	<path style="fill:#222222;" d="M140,0c-7.854,0.001-15.665,3.228-21.219,8.781C113.228,14.334,110.001,22.146,110,30v370
		c0.001,7.854,3.228,15.665,8.781,21.219c5.553,5.553,13.365,8.78,21.219,8.781h150c7.854-0.001,15.665-3.228,21.219-8.781
		c5.553-5.554,8.78-13.365,8.781-21.219V30c-0.001-7.854-3.228-15.665-8.781-21.219C305.666,3.228,297.854,0.001,290,0H140z
		 M199.281,20c0.073-0.002,0.146-0.002,0.219,0c0.167-0.008,0.333-0.008,0.5,0h30c2.761-0.039,5.032,2.168,5.071,4.929
		s-2.168,5.032-4.929,5.071c-0.047,0.001-0.094,0.001-0.141,0h-30c-2.762,0.196-5.159-1.883-5.356-4.645
		C194.448,22.596,196.523,20.2,199.281,20L199.281,20z M120,50h190v325H120C120,375,120,50,120,50z M215,385c8.284,0,15,6.716,15,15
		s-6.716,15-15,15s-15-6.716-15-15C200,391.715,206.716,385,215,385z"/>
</g>
<g>
</g>
<g>
</g>
<g>
</g>
<g>
</g>
<g>
</g>
<g>
</g>
<g>
</g>
<g>
</g>
<g>
</g>
<g>
</g>
<g>
</g>
<g>
</g>
<g>
</g>
<g>
</g>
<g>
</g>
</svg>
